<svg width="110" height="19" viewBox="0 0 110 19" fill="none" xmlns="http://www.w3.org/2000/svg">
<path d="M11.976 15.024H5.688L4.68 18H0.384L6.48 1.152H11.232L17.328 18H12.984L11.976 15.024ZM10.92 11.856L8.832 5.688L6.768 11.856H10.92ZM23.2873 6.504C23.6713 5.88 24.2233 5.376 24.9433 4.992C25.6633 4.608 26.4873 4.416 27.4153 4.416C28.5193 4.416 29.5193 4.696 30.4153 5.256C31.3113 5.816 32.0153 6.616 32.5273 7.656C33.0553 8.696 33.3193 9.904 33.3193 11.28C33.3193 12.656 33.0553 13.872 32.5273 14.928C32.0153 15.968 31.3113 16.776 30.4153 17.352C29.5193 17.912 28.5193 18.192 27.4153 18.192C26.4713 18.192 25.6473 18.008 24.9433 17.64C24.2393 17.256 23.6873 16.752 23.2873 16.128V18H19.1833V0.24H23.2873V6.504ZM29.1433 11.28C29.1433 10.256 28.8553 9.456 28.2793 8.88C27.7193 8.288 27.0233 7.992 26.1913 7.992C25.3753 7.992 24.6793 8.288 24.1033 8.88C23.5433 9.472 23.2633 10.28 23.2633 11.304C23.2633 12.328 23.5433 13.136 24.1033 13.728C24.6793 14.32 25.3753 14.616 26.1913 14.616C27.0073 14.616 27.7033 14.32 28.2793 13.728C28.8553 13.12 29.1433 12.304 29.1433 11.28ZM41.5684 18.192C40.2564 18.192 39.0724 17.912 38.0164 17.352C36.9764 16.792 36.1524 15.992 35.5444 14.952C34.9524 13.912 34.6564 12.696 34.6564 11.304C34.6564 9.928 34.9604 8.72 35.5684 7.68C36.1764 6.624 37.0084 5.816 38.0644 5.256C39.1204 4.696 40.3044 4.416 41.6164 4.416C42.9284 4.416 44.1124 4.696 45.1684 5.256C46.2244 5.816 47.0564 6.624 47.6644 7.68C48.2724 8.72 48.5764 9.928 48.5764 11.304C48.5764 12.68 48.2644 13.896 47.6404 14.952C47.0324 15.992 46.1924 16.792 45.1204 17.352C44.0644 17.912 42.8804 18.192 41.5684 18.192ZM41.5684 14.64C42.3524 14.64 43.0164 14.352 43.5604 13.776C44.1204 13.2 44.4004 12.376 44.4004 11.304C44.4004 10.232 44.1284 9.408 43.5844 8.832C43.0564 8.256 42.4004 7.968 41.6164 7.968C40.8164 7.968 40.1524 8.256 39.6244 8.832C39.0964 9.392 38.8324 10.216 38.8324 11.304C38.8324 12.376 39.0884 13.2 39.6004 13.776C40.1284 14.352 40.7844 14.64 41.5684 14.64ZM63.9776 4.608V18H59.8736V16.176C59.4576 16.768 58.8896 17.248 58.1696 17.616C57.4656 17.968 56.6816 18.144 55.8176 18.144C54.7936 18.144 53.8896 17.92 53.1056 17.472C52.3216 17.008 51.7136 16.344 51.2816 15.48C50.8496 14.616 50.6336 13.6 50.6336 12.432V4.608H54.7136V11.88C54.7136 12.776 54.9456 13.472 55.4096 13.968C55.8736 14.464 56.4976 14.712 57.2816 14.712C58.0816 14.712 58.7136 14.464 59.1776 13.968C59.6416 13.472 59.8736 12.776 59.8736 11.88V4.608H63.9776ZM74.3895 14.52V18H72.3015C70.8135 18 69.6535 17.64 68.8215 16.92C67.9895 16.184 67.5735 14.992 67.5735 13.344V8.016H65.9415V4.608H67.5735V1.344H71.6775V4.608H74.3655V8.016H71.6775V13.392C71.6775 13.792 71.7735 14.08 71.9655 14.256C72.1575 14.432 72.4775 14.52 72.9255 14.52H74.3895ZM85.7934 1.152V11.232C85.7934 12.24 86.0414 13.016 86.5374 13.56C87.0334 14.104 87.7614 14.376 88.7214 14.376C89.6814 14.376 90.4174 14.104 90.9294 13.56C91.4414 13.016 91.6974 12.24 91.6974 11.232V1.152H95.8014V11.208C95.8014 12.712 95.4814 13.984 94.8414 15.024C94.2014 16.064 93.3374 16.848 92.2494 17.376C91.1774 17.904 89.9774 18.168 88.6494 18.168C87.3214 18.168 86.1294 17.912 85.0734 17.4C84.0334 16.872 83.2094 16.088 82.6014 15.048C81.9934 13.992 81.6894 12.712 81.6894 11.208V1.152H85.7934ZM104.131 18.192C102.963 18.192 101.923 17.992 101.011 17.592C100.099 17.192 99.3793 16.648 98.8513 15.96C98.3233 15.256 98.0273 14.472 97.9633 13.608H102.019C102.067 14.072 102.283 14.448 102.667 14.736C103.051 15.024 103.523 15.168 104.083 15.168C104.595 15.168 104.987 15.072 105.259 14.88C105.547 14.672 105.691 14.408 105.691 14.088C105.691 13.704 105.491 13.424 105.091 13.248C104.691 13.056 104.043 12.848 103.147 12.624C102.187 12.4 101.387 12.168 100.747 11.928C100.107 11.672 99.5553 11.28 99.0913 10.752C98.6273 10.208 98.3953 9.48 98.3953 8.568C98.3953 7.8 98.6033 7.104 99.0193 6.48C99.4513 5.84 100.075 5.336 100.891 4.968C101.723 4.6 102.707 4.416 103.843 4.416C105.523 4.416 106.843 4.832 107.803 5.664C108.779 6.496 109.339 7.6 109.483 8.976H105.691C105.627 8.512 105.419 8.144 105.067 7.872C104.731 7.6 104.283 7.464 103.723 7.464C103.243 7.464 102.875 7.56 102.619 7.752C102.363 7.928 102.235 8.176 102.235 8.496C102.235 8.88 102.435 9.168 102.835 9.36C103.251 9.552 103.891 9.744 104.755 9.936C105.747 10.192 106.555 10.448 107.179 10.704C107.803 10.944 108.347 11.344 108.811 11.904C109.291 12.448 109.539 13.184 109.555 14.112C109.555 14.896 109.331 15.6 108.883 16.224C108.451 16.832 107.819 17.312 106.987 17.664C106.171 18.016 105.219 18.192 104.131 18.192Z" fill="white"/>
</svg>
