<svg width="72" height="19" viewBox="0 0 72 19" fill="none" xmlns="http://www.w3.org/2000/svg">
<path d="M10.688 9.36C11.664 9.568 12.448 10.056 13.04 10.824C13.632 11.576 13.928 12.44 13.928 13.416C13.928 14.824 13.432 15.944 12.44 16.776C11.464 17.592 10.096 18 8.336 18H0.488V1.152H8.072C9.784 1.152 11.12 1.544 12.08 2.328C13.056 3.112 13.544 4.176 13.544 5.52C13.544 6.512 13.28 7.336 12.752 7.992C12.24 8.648 11.552 9.104 10.688 9.36ZM4.592 7.968H7.28C7.952 7.968 8.464 7.824 8.816 7.536C9.184 7.232 9.368 6.792 9.368 6.216C9.368 5.64 9.184 5.2 8.816 4.896C8.464 4.592 7.952 4.44 7.28 4.44H4.592V7.968ZM7.616 14.688C8.304 14.688 8.832 14.536 9.2 14.232C9.584 13.912 9.776 13.456 9.776 12.864C9.776 12.272 9.576 11.808 9.176 11.472C8.792 11.136 8.256 10.968 7.568 10.968H4.592V14.688H7.616ZM22.4043 18.192C21.0923 18.192 19.9083 17.912 18.8523 17.352C17.8123 16.792 16.9883 15.992 16.3803 14.952C15.7883 13.912 15.4923 12.696 15.4923 11.304C15.4923 9.928 15.7963 8.72 16.4043 7.68C17.0123 6.624 17.8443 5.816 18.9003 5.256C19.9563 4.696 21.1403 4.416 22.4523 4.416C23.7643 4.416 24.9483 4.696 26.0043 5.256C27.0603 5.816 27.8923 6.624 28.5003 7.68C29.1083 8.72 29.4123 9.928 29.4123 11.304C29.4123 12.68 29.1003 13.896 28.4763 14.952C27.8683 15.992 27.0283 16.792 25.9563 17.352C24.9003 17.912 23.7163 18.192 22.4043 18.192ZM22.4043 14.64C23.1883 14.64 23.8523 14.352 24.3963 13.776C24.9563 13.2 25.2363 12.376 25.2363 11.304C25.2363 10.232 24.9643 9.408 24.4203 8.832C23.8923 8.256 23.2363 7.968 22.4523 7.968C21.6523 7.968 20.9883 8.256 20.4603 8.832C19.9323 9.392 19.6683 10.216 19.6683 11.304C19.6683 12.376 19.9243 13.2 20.4363 13.776C20.9643 14.352 21.6203 14.64 22.4043 14.64ZM30.7736 11.28C30.7736 9.904 31.0296 8.696 31.5416 7.656C32.0696 6.616 32.7816 5.816 33.6776 5.256C34.5736 4.696 35.5736 4.416 36.6776 4.416C37.6216 4.416 38.4456 4.608 39.1496 4.992C39.8696 5.376 40.4216 5.88 40.8056 6.504V4.608H44.9096V18H40.8056V16.104C40.4056 16.728 39.8456 17.232 39.1256 17.616C38.4216 18 37.5976 18.192 36.6536 18.192C35.5656 18.192 34.5736 17.912 33.6776 17.352C32.7816 16.776 32.0696 15.968 31.5416 14.928C31.0296 13.872 30.7736 12.656 30.7736 11.28ZM40.8056 11.304C40.8056 10.28 40.5176 9.472 39.9416 8.88C39.3816 8.288 38.6936 7.992 37.8776 7.992C37.0616 7.992 36.3656 8.288 35.7896 8.88C35.2296 9.456 34.9496 10.256 34.9496 11.28C34.9496 12.304 35.2296 13.12 35.7896 13.728C36.3656 14.32 37.0616 14.616 37.8776 14.616C38.6936 14.616 39.3816 14.32 39.9416 13.728C40.5176 13.136 40.8056 12.328 40.8056 11.304ZM51.9826 6.84C52.4626 6.104 53.0626 5.528 53.7826 5.112C54.5026 4.68 55.3026 4.464 56.1826 4.464V8.808H55.0546C54.0306 8.808 53.2626 9.032 52.7506 9.48C52.2386 9.912 51.9826 10.68 51.9826 11.784V18H47.8786V4.608H51.9826V6.84ZM57.3283 11.28C57.3283 9.904 57.5843 8.696 58.0963 7.656C58.6243 6.616 59.3363 5.816 60.2323 5.256C61.1283 4.696 62.1283 4.416 63.2323 4.416C64.1123 4.416 64.9123 4.6 65.6323 4.968C66.3683 5.336 66.9443 5.832 67.3603 6.456V0.24H71.4643V18H67.3603V16.08C66.9763 16.72 66.4243 17.232 65.7043 17.616C65.0003 18 64.1763 18.192 63.2323 18.192C62.1283 18.192 61.1283 17.912 60.2323 17.352C59.3363 16.776 58.6243 15.968 58.0963 14.928C57.5843 13.872 57.3283 12.656 57.3283 11.28ZM67.3603 11.304C67.3603 10.28 67.0723 9.472 66.4963 8.88C65.9363 8.288 65.2483 7.992 64.4323 7.992C63.6163 7.992 62.9203 8.288 62.3443 8.88C61.7843 9.456 61.5043 10.256 61.5043 11.28C61.5043 12.304 61.7843 13.12 62.3443 13.728C62.9203 14.32 63.6163 14.616 64.4323 14.616C65.2483 14.616 65.9363 14.32 66.4963 13.728C67.0723 13.136 67.3603 12.328 67.3603 11.304Z" fill="white"/>
</svg>
