<svg width="135" height="19" viewBox="0 0 135 19" fill="none" xmlns="http://www.w3.org/2000/svg">
<path d="M0.792 9.552C0.792 7.888 1.152 6.408 1.872 5.112C2.592 3.8 3.592 2.784 4.872 2.064C6.168 1.328 7.632 0.959999 9.264 0.959999C11.264 0.959999 12.976 1.488 14.4 2.544C15.824 3.6 16.776 5.04 17.256 6.864H12.744C12.408 6.16 11.928 5.624 11.304 5.256C10.696 4.888 10 4.704 9.216 4.704C7.952 4.704 6.928 5.144 6.144 6.024C5.36 6.904 4.968 8.08 4.968 9.552C4.968 11.024 5.36 12.2 6.144 13.08C6.928 13.96 7.952 14.4 9.216 14.4C10 14.4 10.696 14.216 11.304 13.848C11.928 13.48 12.408 12.944 12.744 12.24H17.256C16.776 14.064 15.824 15.504 14.4 16.56C12.976 17.6 11.264 18.12 9.264 18.12C7.632 18.12 6.168 17.76 4.872 17.04C3.592 16.304 2.592 15.288 1.872 13.992C1.152 12.696 0.792 11.216 0.792 9.552ZM25.8653 18.192C24.5533 18.192 23.3693 17.912 22.3133 17.352C21.2733 16.792 20.4493 15.992 19.8413 14.952C19.2493 13.912 18.9533 12.696 18.9533 11.304C18.9533 9.928 19.2573 8.72 19.8652 7.68C20.4733 6.624 21.3053 5.816 22.3613 5.256C23.4173 4.696 24.6013 4.416 25.9133 4.416C27.2253 4.416 28.4093 4.696 29.4653 5.256C30.5213 5.816 31.3533 6.624 31.9613 7.68C32.5693 8.72 32.8733 9.928 32.8733 11.304C32.8733 12.68 32.5613 13.896 31.9373 14.952C31.3293 15.992 30.4893 16.792 29.4173 17.352C28.3613 17.912 27.1773 18.192 25.8653 18.192ZM25.8653 14.64C26.6493 14.64 27.3133 14.352 27.8573 13.776C28.4173 13.2 28.6973 12.376 28.6973 11.304C28.6973 10.232 28.4253 9.408 27.8813 8.832C27.3533 8.256 26.6973 7.968 25.9133 7.968C25.1133 7.968 24.4493 8.256 23.9213 8.832C23.3933 9.392 23.1293 10.216 23.1293 11.304C23.1293 12.376 23.3853 13.2 23.8973 13.776C24.4253 14.352 25.0813 14.64 25.8653 14.64ZM43.2105 4.464C44.7785 4.464 46.0265 4.976 46.9545 6C47.8985 7.008 48.3705 8.4 48.3705 10.176V18H44.2905V10.728C44.2905 9.832 44.0585 9.136 43.5945 8.64C43.1305 8.144 42.5065 7.896 41.7225 7.896C40.9385 7.896 40.3145 8.144 39.8505 8.64C39.3865 9.136 39.1545 9.832 39.1545 10.728V18H35.0505V4.608H39.1545V6.384C39.5705 5.792 40.1305 5.328 40.8345 4.992C41.5385 4.64 42.3305 4.464 43.2105 4.464ZM58.6864 14.52V18H56.5984C55.1104 18 53.9504 17.64 53.1184 16.92C52.2864 16.184 51.8704 14.992 51.8704 13.344V8.016H50.2384V4.608H51.8704V1.344H55.9744V4.608H58.6624V8.016H55.9744V13.392C55.9744 13.792 56.0704 14.08 56.2624 14.256C56.4544 14.432 56.7744 14.52 57.2224 14.52H58.6864ZM60.1564 11.28C60.1564 9.904 60.4124 8.696 60.9244 7.656C61.4524 6.616 62.1644 5.816 63.0604 5.256C63.9564 4.696 64.9564 4.416 66.0604 4.416C67.0044 4.416 67.8284 4.608 68.5324 4.992C69.2524 5.376 69.8044 5.88 70.1884 6.504V4.608H74.2924V18H70.1884V16.104C69.7884 16.728 69.2284 17.232 68.5084 17.616C67.8044 18 66.9804 18.192 66.0364 18.192C64.9484 18.192 63.9564 17.912 63.0604 17.352C62.1644 16.776 61.4524 15.968 60.9244 14.928C60.4124 13.872 60.1564 12.656 60.1564 11.28ZM70.1884 11.304C70.1884 10.28 69.9004 9.472 69.3244 8.88C68.7644 8.288 68.0764 7.992 67.2604 7.992C66.4444 7.992 65.7484 8.288 65.1724 8.88C64.6124 9.456 64.3324 10.256 64.3324 11.28C64.3324 12.304 64.6124 13.12 65.1724 13.728C65.7484 14.32 66.4444 14.616 67.2604 14.616C68.0764 14.616 68.7644 14.32 69.3244 13.728C69.9004 13.136 70.1884 12.328 70.1884 11.304ZM76.4454 11.304C76.4454 9.912 76.7254 8.696 77.2854 7.656C77.8614 6.616 78.6534 5.816 79.6614 5.256C80.6854 4.696 81.8534 4.416 83.1654 4.416C84.8454 4.416 86.2454 4.856 87.3654 5.736C88.5014 6.616 89.2454 7.856 89.5974 9.456H85.2294C84.8614 8.432 84.1494 7.92 83.0934 7.92C82.3414 7.92 81.7414 8.216 81.2934 8.808C80.8454 9.384 80.6214 10.216 80.6214 11.304C80.6214 12.392 80.8454 13.232 81.2934 13.824C81.7414 14.4 82.3414 14.688 83.0934 14.688C84.1494 14.688 84.8614 14.176 85.2294 13.152H89.5974C89.2454 14.72 88.5014 15.952 87.3654 16.848C86.2294 17.744 84.8294 18.192 83.1654 18.192C81.8534 18.192 80.6854 17.912 79.6614 17.352C78.6534 16.792 77.8614 15.992 77.2854 14.952C76.7254 13.912 76.4454 12.696 76.4454 11.304ZM99.2567 14.52V18H97.1687C95.6807 18 94.5207 17.64 93.6887 16.92C92.8567 16.184 92.4407 14.992 92.4407 13.344V8.016H90.8087V4.608H92.4407V1.344H96.5447V4.608H99.2327V8.016H96.5447V13.392C96.5447 13.792 96.6407 14.08 96.8327 14.256C97.0247 14.432 97.3447 14.52 97.7927 14.52H99.2567ZM110.661 1.152V11.232C110.661 12.24 110.909 13.016 111.405 13.56C111.901 14.104 112.629 14.376 113.589 14.376C114.549 14.376 115.285 14.104 115.797 13.56C116.309 13.016 116.565 12.24 116.565 11.232V1.152H120.669V11.208C120.669 12.712 120.349 13.984 119.709 15.024C119.069 16.064 118.205 16.848 117.117 17.376C116.045 17.904 114.845 18.168 113.517 18.168C112.189 18.168 110.997 17.912 109.941 17.4C108.901 16.872 108.077 16.088 107.469 15.048C106.861 13.992 106.557 12.712 106.557 11.208V1.152H110.661ZM128.999 18.192C127.831 18.192 126.791 17.992 125.879 17.592C124.967 17.192 124.247 16.648 123.719 15.96C123.191 15.256 122.895 14.472 122.831 13.608H126.887C126.935 14.072 127.151 14.448 127.535 14.736C127.919 15.024 128.391 15.168 128.951 15.168C129.463 15.168 129.855 15.072 130.127 14.88C130.415 14.672 130.559 14.408 130.559 14.088C130.559 13.704 130.359 13.424 129.959 13.248C129.559 13.056 128.911 12.848 128.015 12.624C127.055 12.4 126.255 12.168 125.615 11.928C124.975 11.672 124.423 11.28 123.959 10.752C123.495 10.208 123.263 9.48 123.263 8.568C123.263 7.8 123.471 7.104 123.887 6.48C124.319 5.84 124.943 5.336 125.759 4.968C126.591 4.6 127.575 4.416 128.711 4.416C130.391 4.416 131.711 4.832 132.671 5.664C133.647 6.496 134.207 7.6 134.351 8.976H130.559C130.495 8.512 130.287 8.144 129.935 7.872C129.599 7.6 129.151 7.464 128.591 7.464C128.111 7.464 127.743 7.56 127.487 7.752C127.231 7.928 127.103 8.176 127.103 8.496C127.103 8.88 127.303 9.168 127.703 9.36C128.119 9.552 128.759 9.744 129.623 9.936C130.615 10.192 131.423 10.448 132.047 10.704C132.671 10.944 133.215 11.344 133.679 11.904C134.159 12.448 134.407 13.184 134.423 14.112C134.423 14.896 134.199 15.6 133.751 16.224C133.319 16.832 132.687 17.312 131.855 17.664C131.039 18.016 130.087 18.192 128.999 18.192Z" fill="white"/>
</svg>
