<svg width="77" height="77" viewBox="0 0 77 77" fill="none" xmlns="http://www.w3.org/2000/svg">
<path d="M33.6371 66.9538C20.0221 64.5512 9.61057 52.6981 9.61057 38.4423C9.61057 22.5849 22.5849 9.61057 38.4423 9.61057C54.2998 9.61057 67.2741 22.5849 67.2741 38.4423C67.2741 52.6981 56.8627 64.5512 43.2477 66.9538L41.6459 65.6726H35.2388L33.6371 66.9538Z" fill="url(#paint0_linear_1_10)"/>
<path d="M49.6547 46.4512L50.9361 38.4423H43.2477V32.8362C43.2477 30.5937 44.0486 28.8318 47.5725 28.8318H51.2565V21.4637C49.1742 21.1433 46.9318 20.8229 44.8495 20.8229C38.2822 20.8229 33.6371 24.8273 33.6371 32.0353V38.4423H26.4291V46.4512H33.6371V66.7933C35.2388 67.1142 36.8406 67.2741 38.4424 67.2741C40.0441 67.2741 41.6459 67.1142 43.2477 66.7933V46.4512H49.6547Z" fill="white"/>
<defs>
<linearGradient id="paint0_linear_1_10" x1="38.4423" y1="65.2785" x2="38.4423" y2="9.61057" gradientUnits="userSpaceOnUse">
<stop stop-color="#0062E0"/>
<stop offset="1" stop-color="#19AFFF"/>
</linearGradient>
</defs>
</svg>
