<svg width="89" height="25" viewBox="0 0 89 25" fill="none" xmlns="http://www.w3.org/2000/svg">
<path d="M12.672 6.48C12.368 5.92 11.928 5.496 11.352 5.208C10.792 4.904 10.128 4.752 9.36 4.752C8.032 4.752 6.968 5.192 6.168 6.072C5.368 6.936 4.968 8.096 4.968 9.552C4.968 11.104 5.384 12.32 6.216 13.2C7.064 14.064 8.224 14.496 9.696 14.496C10.704 14.496 11.552 14.24 12.24 13.728C12.944 13.216 13.456 12.48 13.776 11.52H8.568V8.496H17.496V12.312C17.192 13.336 16.672 14.288 15.936 15.168C15.216 16.048 14.296 16.76 13.176 17.304C12.056 17.848 10.792 18.12 9.384 18.12C7.72 18.12 6.232 17.76 4.92 17.04C3.624 16.304 2.608 15.288 1.872 13.992C1.152 12.696 0.792 11.216 0.792 9.552C0.792 7.888 1.152 6.408 1.872 5.112C2.608 3.8 3.624 2.784 4.92 2.064C6.216 1.328 7.696 0.959999 9.36 0.959999C11.376 0.959999 13.072 1.448 14.448 2.424C15.84 3.4 16.76 4.752 17.208 6.48H12.672ZM18.9533 11.28C18.9533 9.904 19.2093 8.696 19.7213 7.656C20.2493 6.616 20.9613 5.816 21.8573 5.256C22.7533 4.696 23.7533 4.416 24.8573 4.416C25.8013 4.416 26.6253 4.608 27.3293 4.992C28.0493 5.376 28.6013 5.88 28.9853 6.504V4.608H33.0893V18H28.9853V16.104C28.5853 16.728 28.0253 17.232 27.3053 17.616C26.6013 18 25.7773 18.192 24.8333 18.192C23.7453 18.192 22.7533 17.912 21.8573 17.352C20.9613 16.776 20.2493 15.968 19.7213 14.928C19.2093 13.872 18.9533 12.656 18.9533 11.28ZM28.9853 11.304C28.9853 10.28 28.6973 9.472 28.1213 8.88C27.5613 8.288 26.8733 7.992 26.0573 7.992C25.2413 7.992 24.5453 8.288 23.9693 8.88C23.4093 9.456 23.1293 10.256 23.1293 11.28C23.1293 12.304 23.4093 13.12 23.9693 13.728C24.5453 14.32 25.2413 14.616 26.0573 14.616C26.8733 14.616 27.5613 14.32 28.1213 13.728C28.6973 13.136 28.9853 12.328 28.9853 11.304ZM40.1623 0.24V18H36.0583V0.24H40.1623ZM47.2404 0.24V18H43.1364V0.24H47.2404ZM62.8386 11.088C62.8386 11.472 62.8146 11.872 62.7666 12.288H53.4786C53.5426 13.12 53.8066 13.76 54.2706 14.208C54.7506 14.64 55.3346 14.856 56.0226 14.856C57.0466 14.856 57.7586 14.424 58.1586 13.56H62.5266C62.3026 14.44 61.8946 15.232 61.3026 15.936C60.7266 16.64 59.9986 17.192 59.1186 17.592C58.2386 17.992 57.2546 18.192 56.1666 18.192C54.8546 18.192 53.6866 17.912 52.6626 17.352C51.6386 16.792 50.8386 15.992 50.2626 14.952C49.6866 13.912 49.3986 12.696 49.3986 11.304C49.3986 9.912 49.6786 8.696 50.2386 7.656C50.8146 6.616 51.6146 5.816 52.6386 5.256C53.6626 4.696 54.8386 4.416 56.1666 4.416C57.4626 4.416 58.6146 4.688 59.6226 5.232C60.6306 5.776 61.4146 6.552 61.9746 7.56C62.5506 8.568 62.8386 9.744 62.8386 11.088ZM58.6386 10.008C58.6386 9.304 58.3986 8.744 57.9186 8.328C57.4386 7.912 56.8386 7.704 56.1186 7.704C55.4306 7.704 54.8466 7.904 54.3666 8.304C53.9026 8.704 53.6146 9.272 53.5026 10.008H58.6386ZM69.1076 6.84C69.5876 6.104 70.1876 5.528 70.9076 5.112C71.6276 4.68 72.4276 4.464 73.3076 4.464V8.808H72.1796C71.1556 8.808 70.3876 9.032 69.8756 9.48C69.3636 9.912 69.1076 10.68 69.1076 11.784V18H65.0036V4.608H69.1076V6.84ZM88.9493 4.608L80.5493 24.36H76.1333L79.2053 17.544L73.7572 4.608H78.3413L81.4373 12.984L84.5093 4.608H88.9493Z" fill="white"/>
</svg>
