<svg width="77" height="77" viewBox="0 0 77 77" fill="none" xmlns="http://www.w3.org/2000/svg">
<path d="M38.4435 10.4842C30.8507 10.4842 29.8979 10.5175 26.9158 10.6532C23.9395 10.7894 21.9079 11.2607 20.1303 11.9521C18.2915 12.6662 16.7318 13.6214 15.1778 15.176C13.6227 16.73 12.6675 18.2898 11.9511 20.1281C11.258 21.9063 10.7862 23.9385 10.6522 26.9137C10.5189 29.8959 10.4839 30.8494 10.4839 38.4423C10.4839 46.0353 10.5177 46.9853 10.6528 49.9675C10.7897 52.9438 11.2609 54.9755 11.9516 56.7531C12.6663 58.592 13.6215 60.1518 15.1761 61.7058C16.7295 63.261 18.2892 64.2185 20.1268 64.9324C21.9056 65.6241 23.9378 66.0951 26.9135 66.2317C29.8956 66.3675 30.8478 66.4005 38.44 66.4005C46.0333 66.4005 46.9833 66.3675 49.9654 66.2317C52.9417 66.0951 54.9756 65.6241 56.7543 64.9324C58.5925 64.2185 60.15 63.261 61.7034 61.7058C63.2584 60.1518 64.2137 58.592 64.9298 56.7537C65.6176 54.9755 66.0893 52.9433 66.2291 49.9681C66.363 46.9859 66.398 46.0353 66.398 38.4423C66.398 30.8494 66.363 29.8965 66.2291 26.9143C66.0893 23.9379 65.6176 21.9063 64.9298 20.1286C64.2137 18.2898 63.2584 16.73 61.7034 15.176C60.1482 13.6208 58.5931 12.6656 56.7526 11.9521C54.9703 11.2607 52.9376 10.7894 49.9613 10.6532C46.9792 10.5175 46.0298 10.4842 38.4347 10.4842H38.4435ZM35.9355 15.5226C36.6798 15.5214 37.5104 15.5226 38.4435 15.5226C45.9081 15.5226 46.7928 15.5493 49.7405 15.6833C52.4664 15.808 53.9458 16.2634 54.9313 16.6461C56.236 17.1528 57.1661 17.7586 58.144 18.7371C59.1226 19.7157 59.7283 20.6476 60.2361 21.9523C60.6188 22.9367 61.0749 24.4161 61.1989 27.142C61.3329 30.0893 61.362 30.9746 61.362 38.4359C61.362 45.8972 61.3329 46.7826 61.1989 49.7298C61.0743 52.4558 60.6188 53.9352 60.2361 54.9196C59.7294 56.2243 59.1226 57.1533 58.144 58.1313C57.1655 59.1098 56.2365 59.7156 54.9313 60.2223C53.9469 60.6067 52.4664 61.061 49.7405 61.1857C46.7934 61.3196 45.9081 61.3487 38.4435 61.3487C30.9783 61.3487 30.0936 61.3196 27.1465 61.1857C24.4206 61.0598 22.9412 60.6044 21.9551 60.2217C20.6504 59.715 19.7185 59.1092 18.7401 58.1307C17.7615 57.1521 17.1558 56.2226 16.6479 54.9172C16.2653 53.9329 15.8092 52.4534 15.6851 49.7275C15.5512 46.7803 15.5244 45.8949 15.5244 38.429C15.5244 30.963 15.5512 30.0823 15.6851 27.1351C15.8098 24.4091 16.2653 22.9297 16.6479 21.9442C17.1546 20.6394 17.7615 19.7075 18.7401 18.729C19.7185 17.7504 20.6504 17.1447 21.9551 16.6368C22.9406 16.2524 24.4206 15.7981 27.1465 15.6728C29.7255 15.5563 30.725 15.5214 35.9355 15.5156V15.5226ZM53.3668 20.1647C51.5146 20.1647 50.012 21.6657 50.012 23.5185C50.012 25.3708 51.5146 26.8735 53.3668 26.8735C55.219 26.8735 56.7217 25.3708 56.7217 23.5185C56.7217 21.6663 55.219 20.1636 53.3668 20.1636V20.1647ZM38.4435 24.0847C30.5147 24.0847 24.0863 30.5133 24.0863 38.4423C24.0863 46.3714 30.5147 52.7971 38.4435 52.7971C46.3723 52.7971 52.7984 46.3714 52.7984 38.4423C52.7984 30.5133 46.3723 24.0847 38.4435 24.0847ZM38.4435 29.123C43.59 29.123 47.7625 33.2951 47.7625 38.4423C47.7625 43.589 43.59 47.7617 38.4435 47.7617C33.2964 47.7617 29.1244 43.589 29.1244 38.4423C29.1244 33.2951 33.2964 29.123 38.4435 29.123Z" fill="url(#paint0_radial_1_2)"/>
<path d="M38.3125 10.3529C30.7198 10.3529 29.7669 10.3861 26.7848 10.5218C23.8085 10.6582 21.777 11.1293 19.9994 11.8207C18.1606 12.5348 16.6008 13.4901 15.0468 15.0446C13.4917 16.5987 12.5365 18.1585 11.8201 19.9967C11.127 21.775 10.6552 23.8072 10.5212 26.7824C10.3879 29.7646 10.3529 30.7181 10.3529 38.3111C10.3529 45.904 10.3867 46.854 10.5218 49.8361C10.6587 52.8126 11.1299 54.8442 11.8207 56.6219C12.5353 58.4607 13.4905 60.0205 15.0451 61.5745C16.5985 63.1296 18.1583 64.0872 19.9959 64.801C21.7746 65.4927 23.8068 65.9638 26.7825 66.1003C29.7646 66.2362 30.7168 66.2692 38.309 66.2692C45.9023 66.2692 46.8523 66.2362 49.8344 66.1003C52.8107 65.9638 54.8446 65.4927 56.6233 64.801C58.4615 64.0872 60.019 63.1296 61.5724 61.5745C63.1274 60.0205 64.0827 58.4607 64.7991 56.6224C65.4862 54.8442 65.9579 52.812 66.0977 49.8367C66.2316 46.8546 66.2666 45.904 66.2666 38.3111C66.2666 30.7181 66.2316 29.7652 66.0977 26.783C65.9579 23.8066 65.4862 21.775 64.7991 19.9973C64.0827 18.1585 63.1274 16.5987 61.5724 15.0446C60.0172 13.4895 58.4621 12.5342 56.6216 11.8207C54.8393 11.1293 52.8066 10.6582 49.8303 10.5218C46.8482 10.3861 45.8988 10.3529 38.3037 10.3529H38.3125ZM35.8045 15.3912C36.5489 15.39 37.3794 15.3912 38.3125 15.3912C45.7771 15.3912 46.6618 15.418 49.6095 15.552C52.3354 15.6766 53.8148 16.1321 54.8003 16.5148C56.105 17.0215 57.0351 17.6273 58.013 18.6058C58.9916 19.5843 59.5973 20.5163 60.1052 21.821C60.4878 22.8053 60.9439 24.2848 61.068 27.0107C61.2019 29.958 61.231 30.8433 61.231 38.3047C61.231 45.766 61.2019 46.6513 61.068 49.5985C60.9433 52.3244 60.4878 53.8039 60.1052 54.7882C59.5984 56.0929 58.9916 57.022 58.013 58C57.0345 58.9784 56.1056 59.5842 54.8003 60.091C53.8159 60.4754 52.3354 60.9297 49.6095 61.0543C46.6624 61.1883 45.7771 61.2175 38.3125 61.2175C30.8474 61.2175 29.9626 61.1883 27.0155 61.0543C24.2896 60.9285 22.8102 60.4731 21.8241 60.0904C20.5195 59.5836 19.5876 58.9779 18.6091 57.9994C17.6305 57.0208 17.0248 56.0912 16.5169 54.7859C16.1343 53.8016 15.6782 52.3221 15.5541 49.5962C15.4202 46.6489 15.3934 45.7636 15.3934 38.2976C15.3934 30.8316 15.4202 29.951 15.5541 27.0037C15.6788 24.2778 16.1343 22.7983 16.5169 21.8129C17.0237 20.5081 17.6305 19.5762 18.6091 18.5976C19.5876 17.6192 20.5195 17.0134 21.8241 16.5055C22.8097 16.121 24.2896 15.6667 27.0155 15.5415C29.5945 15.425 30.594 15.39 35.8045 15.3842V15.3912ZM53.2359 20.0335C51.3837 20.0335 49.881 21.5344 49.881 23.3872C49.881 25.2394 51.3837 26.7422 53.2359 26.7422C55.088 26.7422 56.5907 25.2394 56.5907 23.3872C56.5907 21.535 55.088 20.0323 53.2359 20.0323V20.0335ZM38.3125 23.9534C30.3837 23.9534 23.9553 30.382 23.9553 38.3111C23.9553 46.2401 30.3837 52.6657 38.3125 52.6657C46.2413 52.6657 52.6674 46.2401 52.6674 38.3111C52.6674 30.382 46.2413 23.9534 38.3125 23.9534ZM38.3125 28.9917C43.459 28.9917 47.6316 33.1638 47.6316 38.3111C47.6316 43.4576 43.459 47.6304 38.3125 47.6304C33.1654 47.6304 28.9934 43.4576 28.9934 38.3111C28.9934 33.1638 33.1654 28.9917 38.3125 28.9917Z" fill="url(#paint1_radial_1_2)"/>
<defs>
<radialGradient id="paint0_radial_1_2" cx="0" cy="0" r="1" gradientUnits="userSpaceOnUse" gradientTransform="translate(25.3361 70.7074) rotate(-90) scale(55.4171 51.5401)">
<stop stop-color="#FFDD55"/>
<stop offset="0.1" stop-color="#FFDD55"/>
<stop offset="0.5" stop-color="#FF543E"/>
<stop offset="1" stop-color="#C837AB"/>
</radialGradient>
<radialGradient id="paint1_radial_1_2" cx="0" cy="0" r="1" gradientUnits="userSpaceOnUse" gradientTransform="translate(0.987061 14.3811) rotate(78.6811) scale(24.7716 102.106)">
<stop stop-color="#3771C8"/>
<stop offset="0.128" stop-color="#3771C8"/>
<stop offset="1" stop-color="#6600FF" stop-opacity="0"/>
</radialGradient>
</defs>
</svg>
