<svg width="77" height="77" viewBox="0 0 77 77" fill="none" xmlns="http://www.w3.org/2000/svg">
<path d="M11.4708 15.078C11.4708 12.9431 13.187 11.2124 15.3041 11.2124H61.6436C63.7607 11.2124 65.477 12.9431 65.477 15.078V61.8067C65.477 63.9416 63.7607 65.6726 61.6436 65.6726H15.3041C13.187 65.6726 11.4708 63.9416 11.4708 61.8067V15.078Z" fill="#0A66C2"/>
<path d="M23.5927 28.1251C26.1801 28.1251 28.2777 26.0098 28.2777 23.4006C28.2777 20.7914 26.1801 18.6763 23.5927 18.6763C21.0052 18.6763 18.9076 20.7914 18.9076 23.4006C18.9076 26.0098 21.0052 28.1251 23.5927 28.1251Z" fill="white"/>
<path d="M32.5684 31.6165H40.333V35.2034C40.333 35.2034 42.44 30.9539 48.1729 30.9539C53.287 30.9539 57.5234 33.4944 57.5234 41.2379V57.5667H49.477V43.2165C49.477 38.6486 47.0586 38.1462 45.2158 38.1462C41.3912 38.1462 40.7365 41.4728 40.7365 43.8124V57.5667H32.5684V31.6165Z" fill="white"/>
<path d="M19.5086 31.6165H27.6767V57.5668H19.5086V31.6165Z" fill="white"/>
</svg>
