<svg width="77" height="77" viewBox="0 0 77 77" fill="none" xmlns="http://www.w3.org/2000/svg">
<path d="M42.606 38.3638C42.606 48.3281 34.5833 56.4062 24.6865 56.4062C14.7897 56.4062 6.76759 48.3305 6.76759 38.3638C6.76759 28.397 14.7903 20.322 24.6865 20.322C34.5827 20.322 42.606 28.3994 42.606 38.3638ZM62.2639 38.3638C62.2639 47.744 58.2523 55.3475 53.3042 55.3475C48.3561 55.3475 44.3444 47.7415 44.3444 38.3638C44.3444 28.986 48.3561 21.3801 53.3042 21.3801C58.2523 21.3801 62.2639 28.986 62.2639 38.3638ZM70.3042 38.3638C70.3042 46.768 68.8932 53.5805 67.153 53.5805C65.4128 53.5805 64.0017 46.7656 64.0017 38.3638C64.0017 29.962 65.4128 23.1471 67.1536 23.1471C68.8945 23.1471 70.3042 29.9601 70.3042 38.3638Z" fill="black"/>
</svg>
